<svg xmlns="http://www.w3.org/2000/svg" viewBox="0 0 120 140" fill="none">
  <!-- Écu tricolore CI -->
  <path d="M10 20 L110 20 L110 110 Q60 135 10 110 Z" fill="white" stroke="#E8771A" stroke-width="2"/>
  <!-- Bandes orange/blanc/vert -->
  <clipPath id="shield"><path d="M10 20 L110 20 L110 110 Q60 135 10 110 Z"/></clipPath>
  <rect x="10" y="20" width="33" height="115" fill="#F96A00" clip-path="url(#shield)"/>
  <rect x="43" y="20" width="34" height="115" fill="white" clip-path="url(#shield)"/>
  <rect x="77" y="20" width="33" height="115" fill="#009A00" clip-path="url(#shield)"/>
  <!-- Éléphant stylisé -->
  <ellipse cx="60" cy="75" rx="18" ry="14" fill="#5C4033"/>
  <ellipse cx="48" cy="72" rx="8" ry="11" fill="#5C4033"/>
  <path d="M42 80 Q35 90 38 98 Q40 102 44 100 Q42 90 48 85" fill="#5C4033"/>
  <ellipse cx="75" cy="71" rx="5" ry="6" fill="#5C4033"/>
  <!-- Palmier -->
  <rect x="58" y="40" width="4" height="25" fill="#6D4C41"/>
  <path d="M60 42 Q45 35 40 28 Q50 33 60 42Z" fill="#2E8B57"/>
  <path d="M60 42 Q75 35 80 28 Q70 33 60 42Z" fill="#2E8B57"/>
  <path d="M60 42 Q50 30 52 22 Q56 30 60 42Z" fill="#2E8B57"/>
  <!-- Texte -->
  <text x="60" y="128" text-anchor="middle" font-family="serif" font-size="8" fill="#1A1A1A" font-weight="bold">CÔTE D'IVOIRE</text>
</svg>
