<svg xmlns="http://www.w3.org/2000/svg" viewBox="0 0 400 300" fill="none">
  <rect width="400" height="300" rx="16" fill="#FAFAFA" stroke="#E0E0E0" stroke-width="2"/>
  <!-- En-tête dorée -->
  <rect x="0" y="0" width="400" height="60" rx="16" fill="#F9A825"/>
  <rect x="0" y="44" width="400" height="16" fill="#F9A825"/>
  <!-- Étoile/médaille -->
  <circle cx="60" cy="30" r="22" fill="#FFF9C4" stroke="rgba(255,255,255,0.5)" stroke-width="2"/>
  <text x="60" y="36" text-anchor="middle" font-family="serif" font-size="22" fill="#E65100">★</text>
  <!-- Titre -->
  <text x="230" y="24" text-anchor="middle" font-family="serif" font-size="15" font-weight="bold" fill="white">CERTIFICAT</text>
  <text x="230" y="42" text-anchor="middle" font-family="Arial,sans-serif" font-size="9" fill="rgba(255,255,255,0.85)" letter-spacing="2">D'ENREGISTREMENT OFFICIEL</text>
  <!-- Contenu -->
  <text x="200" y="90" text-anchor="middle" font-family="Arial,sans-serif" font-size="10" fill="#757575">Ce document certifie que</text>
  <rect x="60" y="98" width="280" height="2" rx="1" fill="#E0E0E0"/>
  <rect x="60" y="116" width="280" height="2" rx="1" fill="#E0E0E0"/>
  <text x="200" y="135" text-anchor="middle" font-family="Arial,sans-serif" font-size="10" fill="#757575">est dûment enregistré(e) auprès des autorités</text>
  <rect x="60" y="142" width="280" height="2" rx="1" fill="#E0E0E0"/>
  <rect x="60" y="160" width="180" height="2" rx="1" fill="#E0E0E0"/>
  <!-- Signature area -->
  <rect x="60" y="200" width="120" height="55" rx="8" fill="#F5F5F5" stroke="#E0E0E0" stroke-width="1"/>
  <text x="120" y="232" text-anchor="middle" font-family="Arial,sans-serif" font-size="8" fill="#9E9E9E">Signature officielle</text>
  <rect x="220" y="200" width="120" height="55" rx="8" fill="#F5F5F5" stroke="#E0E0E0" stroke-width="1"/>
  <text x="280" y="232" text-anchor="middle" font-family="Arial,sans-serif" font-size="8" fill="#9E9E9E">Cachet de l'autorité</text>
  <!-- Numéro de référence -->
  <text x="200" y="280" text-anchor="middle" font-family="monospace" font-size="9" fill="#BDBDBD">N° CI-2024-JULABA-00142</text>
</svg>
