<svg xmlns="http://www.w3.org/2000/svg" viewBox="0 0 300 380" fill="none">
  <rect width="300" height="380" rx="12" fill="white" stroke="#E0E0E0" stroke-width="2"/>
  <!-- Pli coin -->
  <path d="M240 0 L300 60 L240 60 Z" fill="#F5F5F5" stroke="#E0E0E0" stroke-width="1"/>
  <path d="M240 0 L300 60 L240 60 Z" fill="none" stroke="#BDBDBD" stroke-width="1"/>
  <!-- Lignes de texte -->
  <rect x="30" y="30" width="180" height="8" rx="4" fill="#E0E0E0"/>
  <rect x="30" y="50" width="220" height="6" rx="3" fill="#EEEEEE"/>
  <rect x="30" y="75" width="240" height="6" rx="3" fill="#EEEEEE"/>
  <rect x="30" y="90" width="200" height="6" rx="3" fill="#EEEEEE"/>
  <rect x="30" y="105" width="230" height="6" rx="3" fill="#EEEEEE"/>
  <rect x="30" y="130" width="240" height="6" rx="3" fill="#EEEEEE"/>
  <rect x="30" y="145" width="215" height="6" rx="3" fill="#EEEEEE"/>
  <rect x="30" y="160" width="240" height="6" rx="3" fill="#EEEEEE"/>
  <rect x="30" y="175" width="190" height="6" rx="3" fill="#EEEEEE"/>
  <rect x="30" y="200" width="240" height="6" rx="3" fill="#EEEEEE"/>
  <rect x="30" y="215" width="225" height="6" rx="3" fill="#EEEEEE"/>
  <rect x="30" y="230" width="240" height="6" rx="3" fill="#EEEEEE"/>
  <rect x="30" y="245" width="180" height="6" rx="3" fill="#EEEEEE"/>
  <!-- Tampons -->
  <circle cx="230" cy="310" r="35" fill="none" stroke="#1565C0" stroke-width="3" opacity="0.6"/>
  <circle cx="230" cy="310" r="28" fill="none" stroke="#1565C0" stroke-width="1" opacity="0.4"/>
  <text x="230" y="306" text-anchor="middle" font-family="Arial,sans-serif" font-size="7" fill="#1565C0" opacity="0.7">OFFICIEL</text>
  <text x="230" y="318" text-anchor="middle" font-family="Arial,sans-serif" font-size="7" fill="#1565C0" opacity="0.7">VALIDÉ</text>
  <!-- Signature -->
  <path d="M30 340 Q50 330 70 345 Q90 360 110 340 Q130 320 150 338" stroke="#9E9E9E" stroke-width="2" fill="none" stroke-linecap="round"/>
  <rect x="30" y="348" width="140" height="1" fill="#E0E0E0"/>
</svg>
