<?xml version="1.0" encoding="UTF-8"?>
<svg id="Layer_1" data-name="Layer 1" xmlns="http://www.w3.org/2000/svg" viewBox="0 0 283.46 283.46">
  <defs>
    <style>
      .cls-1 {
        fill: #0c5ca4;
      }

      .cls-2 {
        fill: #fefefe;
      }

      .cls-3 {
        fill: #f07026;
      }
    </style>
  </defs>
  <circle class="cls-1" cx="141.73" cy="141.73" r="134.65"/>
  <g id="ybEoYz">
    <g>
      <path class="cls-2" d="M164.15,64.05c-3.29-2.94-6.71-6.15-10.12-8.92-4.26-3.46-9.65-5.18-14.76-2.32-33,28.53-66.68,56.33-100.13,84.31-3.25,3.79-3.6,8.63-.37,12.56,7.35,6.55,15.22,12.56,22.85,18.8,19.35,15.82,38.6,31.78,57.78,47.8,5.33,4.45,10.8,9.64,16.27,13.79,4.77,3.63,10.7,1.83,15.2-1.3,26.52-22.68,52.19-46.61,75.6-72.49,2.36-2.61,4.98-5.38,7.2-8.08,3.37-4.08,4.24-7.75.92-12.25-2.53-3.43-6.22-7.24-9.11-10.48-19.16-21.56-39.86-42.2-61.34-61.43Z"/>
      <path class="cls-3" d="M164.15,64.05c21.48,19.23,42.18,39.88,61.34,61.43,2.89,3.25,6.58,7.05,9.11,10.48,3.32,4.5,2.45,8.16-.92,12.25-2.22,2.7-4.84,5.46-7.2,8.08-23.42,25.88-49.08,49.81-75.6,72.49-4.5,3.13-10.43,4.93-15.2,1.3-5.47-4.16-10.94-9.34-16.27-13.79-19.19-16.02-38.43-31.99-57.78-47.8-7.63-6.24-15.5-12.25-22.85-18.8-3.23-3.93-2.88-8.77.37-12.56,33.45-27.99,67.13-55.78,100.13-84.31,5.11-2.86,10.5-1.14,14.76,2.32,3.41,2.77,6.84,5.97,10.12,8.92ZM95.32,123.14h-4.25c-.06,0-.25.14-.31.22l-4.75,8.03-.48.51-2.4-8.57c-.11-.16-.26-.16-.43-.18-.72-.1-2.98-.09-3.71,0-.14.02-.27,0-.36.13l-2.88,17.98c.65.12,4.27.28,4.53-.01l1.13-8.85,1.66,6.16c.17.17,2.34.17,2.72.13.18-.02.32-.01.41-.2,1.15-1.74,1.95-4.07,3.11-5.76.09-.13.19-.29.35-.33l-1.59,8.79c.16.38.49.07.77.09,1.23.08,2.53.27,3.75-.03l2.73-18.09ZM137.34,141.37h4.44l.99-8.5,1.48,5.78c.91-.07,2.01.12,2.9.01.18-.02.32-.01.41-.2l3.03-5.71-1.29,8.62h4.25l2.65-17.74h-4.5l-4.93,8.5-2.41-8.5h-4.68s-2.34,17.74-2.34,17.74ZM212.25,126.59l-2.32,1.68-2.03,1.18-5.75,2.81c3.16-.34,6.06-1.71,8.99-2.83l1.23,7.01-5.64,1.82-6.43,1.51c4.7.08,9.53-.79,13.86-2.58l-1.91-10.6ZM102.2,127.74c-2.45.12-4.95,1.59-5.73,4-.37,1.13-.82,4.05-.89,5.27-.38,6.08,8.43,5.81,10.52,1.4.55-1.17,1.34-6.04,1.18-7.3-.31-2.31-3-3.47-5.07-3.36ZM109.17,140.22c2.5,2.65,8.09,1.39,9.61-1.82.53-1.13,1.13-4.88,1.19-6.2.25-5.85-8.61-5.66-10.58-.97-.59,1.41-1.37,6.2-1,7.61.11.43.47,1.06.78,1.38ZM125.57,127.95h-4.31s-.21.18-.16.28l2.64,13.16c.68-.13,3.56.2,3.93-.13l6.71-13.31h-4.5c-1.34,2.82-2.63,5.72-3.45,8.75-.08-1.37-.07-2.75-.19-4.13-.1-1.27-.25-3.1-.5-4.31-.03-.14-.05-.23-.18-.31ZM156.48,140.22c2.22,2.33,7.22,1.46,8.93-1.15.81-1.24,1.29-4.84,1.37-6.39.31-5.92-7.98-5.8-10.09-1.59-.68,1.36-1.34,6.07-1.04,7.54.1.5.48,1.21.83,1.58ZM177.13,141.37c.38-3.3,1.11-6.58,1.22-9.9-.39-2.81-3.27-3.49-5.72-3.41-.77.03-3.98.58-4.34,1.2l-1.72,11.83c-.05.1.12.28.16.28h3.94l1.43-9.28c.14-.45,2.26-.33,1.96.72-.28,2.87-.9,5.7-1.12,8.56h4.19ZM182.99,136.57c.86,0,1.73,0,2.59,0,1.46,0,3.37-1.71,3.79-3.1,1.86-6.16-7.19-7.08-9.57-2.18-.64,1.32-1.31,5.96-.98,7.35.69,2.87,4.65,3.32,7,2.49.43-.15,2.28-1.18,2.39-1.56.07-.24-1.6-1.95-1.8-2-.17-.05-1.28.58-1.83.6-.82.03-2.13-.6-1.9-1.54.07-.28.29-.06.31-.06ZM194.88,128.44h-4.07l-1.23,8.93c-.13,3.41,2.86,4.83,5.85,3.88.13,1.92-2.13,1.75-3.42,1.33-.3-.1-.53-.45-.87-.33-.14.05-1.82,2.09-1.79,2.25.1.52,2.59,1.53,3.16,1.65,4.65.93,6.9-2.38,7.28-6.58l1.5-11.13h-4.07c-.37,1.12-1.05,9.33-1.44,9.62-.61.46-2.13.3-2.13-.7l1.22-8.92ZM213.97,140.39c-.03-.39-.11-1.82-.55-1.85-4.26,1.24-8.69,1.83-13.12,1.92,4.49,1.01,9.16.41,13.67-.06ZM213.48,140.88c-2.83.76-5.88.88-8.81.74-1.11-.05-2.23-.29-3.32-.37-.14-.01-.46-.09-.43.12,4.11,1.27,8.51,1.97,12.81,1.35l-.24-1.84ZM123.48,147.17h-17.13l-4.13,24.95.02.17c.1,0,.25.14.3.14h5.91s.29-.13.31-.21l1.29-8.29.61-.25,9.07-.05.85-5.86h-9.3s-.15-.14-.17-.2c-.06-.18.4-3.41.51-3.77.05-.17.1-.38.3-.44l10.88-.02c.07-1.8.8-3.86.87-5.61,0-.18,0-.49-.19-.55ZM126.31,147.17l-.28.46c-.73,5.73-1.94,11.41-2.7,17.13-.29,2.18-.63,3.84.65,5.81,1.46,2.23,4.51,2.52,6.9,1.87l.8-4.87c-.08-.53-.8-.12-1.29-.2-.75-.11-1.26-.78-1.19-1.53l2.96-18.37c.03-.1-.13-.3-.18-.3h-5.67ZM141.99,153.61c-2.65.25-5.46,1.68-6.81,4.03-.98,1.7-1.75,6.63-1.91,8.69-.6,8.15,10.86,7.95,14.1,2.64,1.06-1.75,1.87-6.89,2.04-9.05.35-4.41-3.38-6.69-7.42-6.31ZM159.36,153.61c-2.46.24-5.24,1.66-6.58,3.77-1.08,1.7-2.01,7.44-2.14,9.57-.46,7.6,12.64,7.55,14.93.51.44-1.34,1.46-7.6,1.3-8.86-.48-3.72-4.09-5.32-7.51-4.99ZM181.94,167h-5.73s-.23-.2-.18-.31l7.91-10.82c.22-.32-.5-1.63-.71-1.81-.53-.44-11.37.07-12.92-.11l-.19.18c0,1.55-.69,3.3-.75,4.81,0,.14.05.41.18.41h5.48l-7.95,10.97c-.15.35.78,1.91,1.17,2.03.14.04.28.07.43.06l12.36-.09.89-5.34Z"/>
      <path class="cls-1" d="M123.48,147.17c.19.06.2.37.19.55-.06,1.76-.8,3.81-.87,5.61l-10.88.02c-.19.07-.25.27-.3.44-.1.35-.57,3.59-.51,3.77.02.07.12.2.17.2h9.3l-.85,5.86-9.07.05-.61.25-1.29,8.29c-.02.09-.28.21-.31.21h-5.91s-.2-.14-.3-.14l-.02-.17,4.13-24.95h17.13Z"/>
      <path class="cls-2" d="M95.32,123.14l-2.73,18.09c-1.22.3-2.52.11-3.75.03-.28-.02-.61.29-.77-.09l1.59-8.79c-.16.03-.26.2-.35.33-1.16,1.68-1.96,4.01-3.11,5.76-.09.19-.23.18-.41.2-.38.04-2.55.04-2.72-.13l-1.66-6.16-1.13,8.85c-.26.3-3.88.13-4.53.01l2.88-17.98c.09-.14.23-.11.36-.13.73-.09,2.99-.09,3.71,0,.17.02.32.02.43.18l2.4,8.57.48-.51,4.75-8.03c.06-.07.25-.22.31-.22h4.25Z"/>
      <path class="cls-2" d="M137.34,141.37l2.34-17.74h4.68s2.41,8.5,2.41,8.5l4.93-8.5h4.5l-2.65,17.74h-4.25l1.29-8.62-3.03,5.71c-.09.19-.23.18-.41.2-.89.1-1.98-.09-2.9-.01l-1.48-5.78-.99,8.5h-4.44Z"/>
      <path class="cls-1" d="M159.36,153.61c3.43-.34,7.03,1.26,7.51,4.99.16,1.26-.86,7.52-1.3,8.86-2.29,7.03-15.39,7.08-14.93-.51.13-2.13,1.05-7.87,2.14-9.57,1.34-2.11,4.12-3.53,6.58-3.77ZM160.45,159.29c-.93-.64-2.33-.33-2.85.69l-1.06,6.35c.02,1.74,2.67,1.7,3.27.06.28-.78,1-5.37,1-6.24,0-.35-.07-.65-.37-.85Z"/>
      <path class="cls-1" d="M141.99,153.61c4.03-.38,7.76,1.9,7.42,6.31-.17,2.16-.98,7.3-2.04,9.05-3.24,5.31-14.7,5.51-14.1-2.64.15-2.06.92-6.99,1.91-8.69,1.36-2.35,4.16-3.78,6.81-4.03ZM141.37,159.02c-.41.08-1.13.53-1.24.98-.15,1.94-.98,4.34-1.06,6.22-.07,1.75,2.51,1.83,3.22.38l1.07-6.33c.03-1.16-1.01-1.45-2-1.25Z"/>
      <path class="cls-1" d="M181.94,167l-.89,5.34-12.36.09c-.15,0-.29-.02-.43-.06-.39-.12-1.32-1.68-1.17-2.03l7.95-10.97h-5.48c-.13,0-.18-.27-.18-.41.06-1.5.75-3.25.75-4.81l.19-.18c1.55.17,12.39-.33,12.92.11.21.18.93,1.49.71,1.81l-7.91,10.82c-.05.1.15.31.18.31h5.73Z"/>
      <path class="cls-1" d="M126.31,147.17h5.67c.05,0,.21.19.18.3l-2.96,18.37c-.07.75.44,1.43,1.19,1.53.49.07,1.21-.34,1.29.2l-.8,4.87c-2.39.65-5.44.37-6.9-1.87-1.28-1.97-.94-3.63-.65-5.81.77-5.72,1.98-11.4,2.7-17.13l.28-.46Z"/>
      <path class="cls-2" d="M194.88,128.44l-1.22,8.92c0,1,1.51,1.16,2.13.7.39-.29,1.07-8.5,1.44-9.62h4.07l-1.5,11.13c-.38,4.19-2.63,7.5-7.28,6.58-.57-.11-3.06-1.13-3.16-1.65-.03-.17,1.65-2.21,1.79-2.25.34-.11.57.24.87.33,1.3.42,3.55.59,3.42-1.33-2.98.95-5.98-.47-5.85-3.88l1.23-8.93h4.07Z"/>
      <path class="cls-2" d="M102.2,127.74c2.07-.1,4.76,1.05,5.07,3.36.17,1.26-.62,6.14-1.18,7.3-2.09,4.41-10.9,4.68-10.52-1.4.08-1.22.53-4.13.89-5.27.78-2.41,3.28-3.88,5.73-4ZM102.68,131.92c-.48-.51-1.78-.3-2.09.37l-.79,4.74c.03,1.27,1.98,1.12,2.36.04.23-.64.64-3.39.67-4.14.01-.28.04-.81-.15-1.01Z"/>
      <path class="cls-2" d="M109.17,140.22c-.3-.32-.66-.95-.78-1.38-.38-1.41.4-6.21,1-7.61,1.97-4.69,10.84-4.87,10.58.97-.06,1.32-.66,5.07-1.19,6.2-1.52,3.21-7.11,4.47-9.61,1.82ZM115.38,131.92c-.52-.55-1.81-.26-2.11.47-.5,1.22-.38,3.41-.79,4.74.25,1.19,2.03.95,2.39-.06.23-.64.63-3.38.67-4.14.02-.28.04-.81-.15-1.01Z"/>
      <path class="cls-2" d="M177.13,141.37h-4.19c.22-2.87.84-5.7,1.12-8.56.3-1.05-1.82-1.17-1.96-.72l-1.43,9.28h-3.94s-.21-.18-.16-.28l1.72-11.83c.36-.62,3.57-1.17,4.34-1.2,2.45-.09,5.33.59,5.72,3.41-.11,3.32-.84,6.6-1.22,9.9Z"/>
      <path class="cls-2" d="M156.48,140.22c-.35-.37-.72-1.07-.83-1.58-.3-1.47.36-6.18,1.04-7.54,2.11-4.21,10.4-4.33,10.09,1.59-.08,1.55-.56,5.15-1.37,6.39-1.71,2.6-6.71,3.48-8.93,1.15ZM159.91,137.77c.48.48,1.77.23,2.01-.46.45-1.29.28-3.26.66-4.63-.24-1.16-1.82-.98-2.27-.06.04.9-.92,4.63-.4,5.15Z"/>
      <path class="cls-2" d="M182.99,136.57s-.24-.22-.31.06c-.22.94,1.08,1.58,1.9,1.54.55-.02,1.65-.65,1.83-.6.21.05,1.88,1.76,1.8,2-.11.37-1.96,1.4-2.39,1.56-2.36.83-6.32.38-7-2.49-.33-1.39.34-6.03.98-7.35,2.38-4.9,11.43-3.98,9.57,2.18-.42,1.39-2.33,3.1-3.79,3.1-.86,0-1.73,0-2.59,0ZM184.73,131.56c-1.1.02-1.56,1.17-1.57,2.12,0,.46.42.49.83.5,2.15.04,2.24-2.65.74-2.62Z"/>
      <path class="cls-2" d="M125.57,127.95c.13.08.15.17.18.31.25,1.21.39,3.04.5,4.31.11,1.38.1,2.75.19,4.13.82-3.02,2.11-5.93,3.45-8.75h4.5l-6.71,13.31c-.37.33-3.25,0-3.93.13l-2.64-13.16c-.04-.1.12-.28.16-.28h4.31Z"/>
      <path class="cls-2" d="M212.25,126.59l1.91,10.6c-4.33,1.79-9.17,2.66-13.86,2.58l6.43-1.51,5.64-1.82-1.23-7.01c-2.93,1.13-5.83,2.49-8.99,2.83l5.75-2.81,2.03-1.18,2.32-1.68Z"/>
      <path class="cls-2" d="M213.97,140.39c-4.52.48-9.19,1.07-13.67.06,4.44-.09,8.86-.67,13.12-1.92.44.03.52,1.46.55,1.85Z"/>
      <path class="cls-2" d="M213.48,140.88l.24,1.84c-4.3.62-8.69-.09-12.81-1.35-.03-.21.29-.13.43-.12,1.1.09,2.22.32,3.32.37,2.93.14,5.98.01,8.81-.74Z"/>
      <path class="cls-3" d="M160.45,159.29c.29.2.37.5.37.85,0,.87-.72,5.46-1,6.24-.6,1.65-3.25,1.68-3.27-.06l1.06-6.35c.52-1.01,1.92-1.33,2.85-.69Z"/>
      <path class="cls-3" d="M141.37,159.02c.98-.2,2.03.08,2,1.25l-1.07,6.33c-.71,1.45-3.29,1.38-3.22-.38.08-1.88.91-4.28,1.06-6.22.11-.45.83-.89,1.24-.98Z"/>
      <path class="cls-3" d="M102.68,131.92c.19.21.17.73.15,1.01-.04.74-.44,3.49-.67,4.14-.38,1.08-2.33,1.23-2.36-.04l.79-4.74c.31-.67,1.61-.88,2.09-.37Z"/>
      <path class="cls-3" d="M115.38,131.92c.19.21.17.73.15,1.01-.04.75-.44,3.49-.67,4.14-.36,1.02-2.14,1.25-2.39.06.41-1.33.29-3.52.79-4.74.3-.73,1.6-1.02,2.11-.47Z"/>
      <path class="cls-3" d="M159.91,137.77c-.53-.53.43-4.25.4-5.15.45-.91,2.03-1.1,2.27.06-.38,1.37-.21,3.34-.66,4.63-.24.69-1.52.94-2.01.46Z"/>
      <path class="cls-3" d="M184.73,131.56c1.5-.03,1.41,2.66-.74,2.62-.4,0-.83-.04-.83-.5,0-.95.47-2.1,1.57-2.12Z"/>
    </g>
  </g>
</svg>