<?xml version="1.0" encoding="UTF-8"?>
<svg id="Layer_1" data-name="Layer 1" xmlns="http://www.w3.org/2000/svg" viewBox="0 0 283.46 283.46">
  <defs>
    <style>
      .cls-1 {
        fill: #43914d;
      }

      .cls-2 {
        fill: #fff;
      }
    </style>
  </defs>
  <circle class="cls-1" cx="141.73" cy="141.73" r="134.65"/>
  <g id="MSpeRr">
    <g>
      <path class="cls-2" d="M192.19,55.09c.85-.26,1.39.36,1.79,1.02l37.22,81.31c.26.65.59,1.5.13,2.14l-161.92,74.24c-1.36.52-2.19,1.26-3.1-.33-2.57-4.49-4.77-10.72-6.99-15.55-10.28-22.33-20.6-44.66-30.67-67.08,0-.52.58-1.18,1.04-1.39L192.19,55.09ZM169.18,78.34c-.87-.83-2.38-1.34-3.59-1.18-19.35,8.54-38.55,17.55-57.79,26.37-13.15,6.03-26.5,11.8-39.59,18-1.75.83-4.89,1.87-5.78,3.6-1.23,2.41.31,4.44.55,6.85.71,7.18-1.6,14.12-6.85,19.06-2.42,2.28-6.75,3.81-5,7.97,3.12,6.02,5.44,12.68,8.56,18.68.62,1.2,1.07,2.35,2.37,2.99,2.29,1.13,5.2-.46,7.75-.63,7.1-.47,14.12,2.17,18.76,7.6,1.79,2.09,2.68,5.21,6.2,4.64,25.8-11.68,51.6-23.35,77.33-35.18,7.22-3.32,14.99-6.55,22.03-10.12,2.02-1.02,3.98-1.71,4.16-4.33.12-1.7-.97-4.29-1.11-6.25-.47-6.5,2.23-13.73,7-18.11,2.5-2.3,6.12-2.89,5.17-7.22-2.77-5.84-5.2-11.86-7.99-17.68-.59-1.23-1.31-3.12-2.29-3.97-2.57-2.22-5.16-.26-8.03,0-6.91.59-14.01-1.81-18.75-6.91-1.08-1.16-2.1-3.23-3.09-4.17Z"/>
      <path class="cls-2" d="M79.3,212.64l13.91-6.51,5.17-2.2h109.39c1.59-.25,2.53-.05,3.93-.97,2.07-1.35,1.83-4.38,2.53-6.62,2.02-6.43,7.47-12.1,13.86-14.27,3.65-1.24,7.58-.3,8.1-5.29.69-6.6-.47-14.25.04-20.96-.45-5.7-5.02-4.52-9.21-6.19-1.58-.63-3.06-1.48-4.41-2.51,2.9-1.89,6.97-2.83,9.8-4.71,2.14-1.42,2.45-3.31,1.75-5.73l-7.76-17.13h17.75c.06,0,.54.54.67.67v91.74c-.12.14-.6.67-.67.67H79.3Z"/>
      <path class="cls-2" d="M155.64,185.85c4.62-.19,8.52-2.83,10.11-7.19.8-2.19.43-3.95.82-6.1l18.87-8.59c.33-.01.35,2.25.35,2.58-.51,20.24-19.11,34.68-38.89,30.17-4.76-1.09-10.76-4.18-14.24-7.63-.22-.21-.63-.45-.34-.79l12.74-5.79c2.28,1.99,5.12,3.12,8.14,3.34v3.79h2.46v-3.79Z"/>
      <path class="cls-2" d="M216.53,157.12c13.8-1.53,14.13,20.12.17,18.91-11.04-.96-11.33-17.67-.17-18.91Z"/>
      <path class="cls-2" d="M155.64,182.06v-4.35l5.69-2.79c.77,0-.16,3.33-.38,3.85-.86,1.96-3.17,3.31-5.31,3.29Z"/>
      <path class="cls-2" d="M153.19,182.06c-.32.21-2.02-.36-2.45-.56-.24-.11-1.24-.56-1.11-.89.27-.71,2.64-1.29,3.34-1.68l.23,3.12Z"/>
      <path class="cls-2" d="M151.48,111.66c16.71,15.21,11.85,43.35-8.96,52.03-24.69,10.3-50.17-12.4-42.52-38.05,6.65-22.31,34.23-29.67,51.48-13.98Z"/>
      <path class="cls-2" d="M65.31,155.35c3.09-3.63,9.18-4.36,12.98-1.41,8.82,6.86,1.14,20.46-9.32,16.46-5.87-2.24-7.68-10.33-3.66-15.05Z"/>
      <path class="cls-2" d="M187.29,99.31c13.44-1,13.63,20.11-.28,18.9-11.12-.96-11.23-18.04.28-18.9Z"/>
      <g id="SvoKWC">
        <path class="cls-1" d="M131.23,121.3l7.24-3c.15-.06.88.32.64.73l-2.64,9.98c.14,1,2.7,1.56,1.97,4.03-.33,1.13-2.06,1.61-2.2,1.86-.1.17.5,3.55,1.13,3.67.37.07,3.46-1.04,4.47-1.15.75-.08,2.36-.21,2.67.66l-4.4,1.83c-.54.23-1.91,1.34-2.02,1.98-.1.57.6,2.69.87,2.8.31.14,4.67-1.64,5.35.12-2,1.95-6,1.07-3.73,4.69.12.19,3.95-.93,4.31.73-.66.32-3.41,1.24-3.51,1.84-.28,1.68,4.25,2.84-.24,4.74s-1.97-2.54-3.92-3.09c-.94-.26-2.44.86-3.4,1.11-1.2-1.48,2.46-3.16,2.56-3.41.05-.12-.76-2.04-1.06-2.23-.43-.28-4.05,1.22-4.93,1.4-.91-1.73,3.6-3.61,3.71-3.87.33-.76-1.77-3.59-3.37-2.92l-5.25,2.18c-.92-2.16,5.73-4.38,5.53-5.16-.46-.38-1.77-2.9-1.94-2.96-.26-.1-2.41,1.14-3.57-.19-1.4-1.61-.4-2.4-.6-3.32-.22-1.03-9.24-5.07-9.41-6.01-.26-1.4,6.92-2.83,7.2-3.5.2-.49-2.81-4.21.97-4.07-4.22-5.33-9.25,4.41-9.52,7.96-.03.33-.02.34.23.55,1.24,1.06,5.81,2.52,6.58,3.51,1.29,1.65-1.65,5.74-3.84,4.7-1.05-.5-3.83-4.41-4.38-4.19-.75,1.25-1.5,4.85-2.75,5.46-1.88.92-5.29-1.29-4.9-3.4.23-1.28,5.35-5.03,6.12-6.4.28-.49.8-3.93,1.17-4.99,3.72-10.76,12.68-12.69,18.84-2.67Z"/>
      </g>
    </g>
  </g>
</svg>