<?xml version="1.0" encoding="UTF-8"?>
<svg id="Layer_1" data-name="Layer 1" xmlns="http://www.w3.org/2000/svg" viewBox="0 0 283.46 283.46">
  <defs>
    <style>
      .cls-1 {
        fill: #fac90a;
      }

      .cls-2 {
        fill: #054668;
      }
    </style>
  </defs>
  <circle class="cls-1" cx="141.73" cy="141.73" r="133.09"/>
  <g id="g8CPqQ">
    <g>
      <path class="cls-2" d="M97.99,44.5l86.75-.11c6.74,1.14,12,6.32,12.76,13.17v85.59c-1.08,7.82-7.24,12.6-14.91,13.18-26.34,1.97-55.1-1.52-81.7,0-7.44-.33-13.99-5.62-14.91-13.18l.02-86c.99-6.45,5.69-11.18,11.98-12.65ZM166.81,106.19c.8-13.82-1.22-27.4-7.55-39.76-.95-1.86-5.13-8.97-6.47-9.95-.37-.27-.48-.57-1.09-.41l-7.74,12.68c11.84,10.31,17.47,21.67,21.94,36.43.21.71-.35,1.22.92,1ZM163.35,131.68c1.87-25.44-8.82-51.57-32.15-63.49l-21.43,33.24c15.13,2.29,30.48,9.08,42.12,19.03,3.81,3.26,6.76,7.06,10.25,10.5.38.37.36.95,1.21.73ZM87.95,141.19c-1.2.87-.37,2.66,0,3.89,1.48,4.94,5.81,8.55,10.85,9.46l84.66.07c5.35-.22,10.33-4.13,11.98-9.19.24-.73,1.36-4.22.1-4.22h-107.59Z"/>
      <path class="cls-2" d="M152.77,178.35c1.16.33,7.89,12.02,9.36,13.97.28.37.4.86,1,.72l8.85-13.95c.18-.26.88-.75,1.1-.75h8.21s.65.6.65.65v36.3s-.6.65-.65.65h-8.43v-21.17l-6.46,9.75c-.93.96-5.79.92-6.75.22l-6.67-9.97v21.17h-9.07v-36.94s.6-.65.65-.65c1.83,0,6.9-.37,8.21,0Z"/>
      <path class="cls-2" d="M75.42,178.35c.31.05.86.48,1.1.76l8.85,13.94c.6.14.72-.38,1.01-.72,1.43-1.7,8.49-13.97,9.36-13.97h8.21s.65.6.65.65v36.94h-9.07v-21.17l-6.67,9.97c-.9.65-5.65.69-6.51-.03-2.09-1.75-4.24-7.97-6.7-9.94v21.17h-8.64v-37.59c2.56.31,5.99-.42,8.43,0Z"/>
      <path class="cls-2" d="M121.77,187.53c16.38-2.25,24.32,18.16,11.22,27.21-9.2,6.36-22.04.66-23.54-10.36-1.03-7.55,4.58-15.78,12.31-16.85ZM123.06,195.74c-7.17,1.16-7,12.17-.08,13.26,10.78,1.7,10.82-15,.08-13.26Z"/>
      <path class="cls-2" d="M199.11,187.53c15.54-2.13,23.75,16.81,12.17,26.43-12.06,10.01-29.78-3.08-23.38-17.76,1.81-4.14,6.68-8.04,11.21-8.66ZM199.96,195.73c-6.61,1.37-6.88,12.22.37,13.25,11.21,1.6,10.2-15.44-.37-13.25Z"/>
      <path class="cls-2" d="M146.5,227.18c3.98-1.17,4.03,3.25,6.69,4.76,1.85-2.37,2.14-5.73,5.84-4.76v11.88c0,.88-3.02.88-3.02,0v-6.27c-1.46.75-1.34,3.07-3.24,3.07s-1.94-2.28-3.24-3.07v6.27c0,.88-3.02.88-3.02,0v-11.88Z"/>
      <path class="cls-2" d="M173.72,227.18c4.21-.74,5.26,4.58,8.21,6.48.41-2.99-1.64-7.37,3.03-6.48v11.88c0,.27-.7.63-1.08.67-2.16.25-4.83-4.73-6.34-6.21-.38-.37-.36-.95-1.22-.73v6.91c-.62.11-2.59.01-2.59-.65v-11.88Z"/>
      <path class="cls-2" d="M125.33,230.63c.13-.14,3.5-.87,3.23.44,1.73-2.31,4.46.47,5.12.37.84-.13,1.39-1.59,3.51-1.24.78.13,2.4,1.81,2.4,2.38v6.48c0,.63-2.26,1.07-2.84.24-.77-1.1.74-6.14-1.32-6.48-2.48-.4-.79,5.95-1.86,6.7-.52.37-2.03.35-2.43-.22-.77-1.1.74-6.14-1.32-6.48-2.38-.39-.96,5.5-1.65,6.48-.58.83-2.84.39-2.84-.24,0-1.21-.3-8.13,0-8.43Z"/>
      <path class="cls-2" d="M172,227.18v2.59s-3.89,0-3.89,0v9.29c0,.91-3.46.91-3.46,0v-9.29h-3.89s0-2.59,0-2.59h11.23Z"/>
      <path class="cls-2" d="M117,230.3c9.43-1.95,8.43,12.05-.77,9.21-4.31-1.33-3.85-8.26.77-9.21ZM120.04,232.9c-2.49-2.5-5.78,2.93-2.48,4.42,3.18,1.44,3.85-3.05,2.48-4.42Z"/>
      <path class="cls-2" d="M98.54,228.69c.62-2.89,8.08-3.98,6.92.22-.31.32-4.98-.91-3.67,1.73h2.81s0,2.16,0,2.16h-3.03s0,6.26,0,6.26c0,.88-3.02.88-3.02,0,0-2.63-.47-8.19,0-10.37Z"/>
      <path class="cls-2" d="M105.88,230.63c.11-.11,2.5-.26,3.02-.43l.22,1.3c.97-1.14,2.21-1.45,3.67-1.3-.09.88.13,1.94,0,2.78-.09.59-3.51-.39-3.9,1.76-.49,2.69,1.54,5.63-3.02,4.97.24-1.26-.32-8.75,0-9.07Z"/>
      <path class="cls-1" d="M87.95,141.19h107.59c1.26,0,.14,3.5-.1,4.22-1.65,5.06-6.64,8.97-11.98,9.19l-84.66-.07c-5.04-.91-9.37-4.52-10.85-9.46-.37-1.23-1.2-3.02,0-3.89Z"/>
      <path class="cls-1" d="M163.35,131.68c-.85.22-.84-.35-1.21-.73-3.48-3.44-6.43-7.24-10.25-10.5-11.63-9.95-26.99-16.74-42.12-19.03l21.43-33.24c23.33,11.92,34.02,38.05,32.15,63.49ZM134.75,82.09c-12.88.91-11.82,21.28,2.42,19.3,11.38-1.57,9.88-20.17-2.42-19.3Z"/>
      <path class="cls-1" d="M166.81,106.19c-1.26.21-.7-.3-.92-1-4.47-14.77-10.1-26.12-21.94-36.43l7.74-12.68c.61-.16.72.14,1.09.41,1.34.98,5.52,8.09,6.47,9.95,6.33,12.36,8.35,25.94,7.55,39.76Z"/>
      <path class="cls-1" d="M123.06,195.74c10.74-1.74,10.7,14.96-.08,13.26-6.92-1.09-7.09-12.1.08-13.26Z"/>
      <path class="cls-1" d="M199.96,195.73c10.57-2.18,11.58,14.86.37,13.25-7.25-1.04-6.98-11.89-.37-13.25Z"/>
      <path class="cls-1" d="M120.04,232.9c1.37,1.37.7,5.86-2.48,4.42-3.3-1.49-.01-6.92,2.48-4.42Z"/>
      <path class="cls-2" d="M134.75,82.09c12.3-.87,13.8,17.73,2.42,19.3-14.24,1.97-15.3-18.4-2.42-19.3Z"/>
    </g>
  </g>
</svg>