<svg xmlns="http://www.w3.org/2000/svg" viewBox="0 0 400 400" fill="none">
  <rect width="400" height="400" rx="32" fill="#FFF8F0"/>
  <ellipse cx="200" cy="230" rx="100" ry="95" fill="#CE93D8"/>
  <ellipse cx="200" cy="225" rx="93" ry="88" fill="#E1BEE7"/>
  <ellipse cx="200" cy="218" rx="85" ry="80" fill="#BA68C8"/>
  <!-- Couches d'oignon -->
  <ellipse cx="200" cy="215" rx="70" ry="66" fill="none" stroke="rgba(255,255,255,0.4)" stroke-width="3"/>
  <ellipse cx="200" cy="215" rx="50" ry="47" fill="none" stroke="rgba(255,255,255,0.3)" stroke-width="2"/>
  <ellipse cx="200" cy="215" rx="30" ry="28" fill="none" stroke="rgba(255,255,255,0.2)" stroke-width="2"/>
  <ellipse cx="165" cy="190" rx="22" ry="14" fill="rgba(255,255,255,0.25)"/>
  <!-- Tiges -->
  <rect x="193" y="130" width="14" height="55" rx="7" fill="#558B2F"/>
  <path d="M200 135 Q178 115 165 100 Q185 115 200 135Z" fill="#43A047"/>
  <path d="M200 135 Q222 115 235 100 Q215 115 200 135Z" fill="#558B2F"/>
  <!-- Racines -->
  <path d="M170 320 Q172 335 165 345" stroke="#9E9E9E" stroke-width="2" stroke-linecap="round" fill="none"/>
  <path d="M185 322 Q186 338 180 348" stroke="#9E9E9E" stroke-width="2" stroke-linecap="round" fill="none"/>
  <path d="M200 323 Q200 340 200 350" stroke="#9E9E9E" stroke-width="2" stroke-linecap="round" fill="none"/>
  <path d="M215 322 Q215 338 220 348" stroke="#9E9E9E" stroke-width="2" stroke-linecap="round" fill="none"/>
  <path d="M230 320 Q230 335 235 345" stroke="#9E9E9E" stroke-width="2" stroke-linecap="round" fill="none"/>
  <text x="200" y="385" text-anchor="middle" font-family="Arial,sans-serif" font-size="26" font-weight="bold" fill="#6A1B9A">Oignons</text>
</svg>
