<svg xmlns="http://www.w3.org/2000/svg" viewBox="0 0 400 400" fill="none">
  <rect width="400" height="400" rx="40" fill="#E3F2FD"/>
  <circle cx="200" cy="200" r="160" fill="#BBDEFB"/>
  <ellipse cx="200" cy="120" rx="85" ry="55" fill="#2072AF"/>
  <ellipse cx="200" cy="95" rx="65" ry="40" fill="#1E88E5"/>
  <rect x="120" y="110" width="160" height="25" rx="12" fill="#2072AF"/>
  <circle cx="200" cy="200" r="75" fill="#8D5524"/>
  <ellipse cx="178" cy="185" rx="9" ry="11" fill="white"/>
  <ellipse cx="222" cy="185" rx="9" ry="11" fill="white"/>
  <circle cx="180" cy="187" r="5" fill="#1A1A1A"/>
  <circle cx="224" cy="187" r="5" fill="#1A1A1A"/>
  <circle cx="182" cy="185" r="2" fill="white"/>
  <circle cx="226" cy="185" r="2" fill="white"/>
  <path d="M175 215 Q200 235 225 215" stroke="white" stroke-width="4" stroke-linecap="round" fill="none"/>
  <rect x="188" y="290" width="24" height="35" rx="12" fill="#2072AF"/>
  <rect x="194" y="325" width="12" height="15" fill="#1565C0"/>
  <rect x="183" y="338" width="34" height="5" rx="2.5" fill="#1565C0"/>
  <circle cx="100" cy="150" r="6" fill="#1E88E5" opacity="0.7"/>
  <circle cx="300" cy="150" r="8" fill="#1E88E5" opacity="0.5"/>
  <circle cx="320" cy="260" r="5" fill="#1E88E5" opacity="0.6"/>
</svg>
