<svg xmlns="http://www.w3.org/2000/svg" viewBox="0 0 400 400" fill="none">
  <rect width="400" height="400" rx="40" fill="#FFF8E1"/>
  <circle cx="200" cy="200" r="160" fill="#FFE0B2"/>
  <ellipse cx="200" cy="120" rx="85" ry="55" fill="#F57C00"/>
  <ellipse cx="200" cy="95" rx="65" ry="40" fill="#FFA726"/>
  <rect x="120" y="110" width="160" height="25" rx="12" fill="#F57C00"/>
  <circle cx="200" cy="200" r="75" fill="#8D5524"/>
  <ellipse cx="178" cy="185" rx="9" ry="11" fill="white"/>
  <ellipse cx="222" cy="185" rx="9" ry="11" fill="white"/>
  <circle cx="180" cy="187" r="5" fill="#1A1A1A"/>
  <circle cx="224" cy="187" r="5" fill="#1A1A1A"/>
  <circle cx="182" cy="185" r="2" fill="white"/>
  <circle cx="226" cy="185" r="2" fill="white"/>
  <path d="M175 215 Q200 235 225 215" stroke="white" stroke-width="4" stroke-linecap="round" fill="none"/>
  <!-- Ondes vocales autour du micro -->
  <path d="M140 250 Q160 230 140 210" stroke="#F57C00" stroke-width="4" stroke-linecap="round" fill="none" opacity="0.6"/>
  <path d="M125 265 Q155 235 125 195" stroke="#F57C00" stroke-width="3" stroke-linecap="round" fill="none" opacity="0.4"/>
  <path d="M260 250 Q240 230 260 210" stroke="#F57C00" stroke-width="4" stroke-linecap="round" fill="none" opacity="0.6"/>
  <path d="M275 265 Q245 235 275 195" stroke="#F57C00" stroke-width="3" stroke-linecap="round" fill="none" opacity="0.4"/>
  <rect x="188" y="290" width="24" height="35" rx="12" fill="#F57C00"/>
  <rect x="194" y="325" width="12" height="15" fill="#E65100"/>
  <rect x="183" y="338" width="34" height="5" rx="2.5" fill="#E65100"/>
</svg>
